<svg width="56" height="57" viewBox="0 0 56 57" fill="none" xmlns="http://www.w3.org/2000/svg">
<path d="M10.5547 38.2784C10.5547 38.0596 10.6276 37.8773 10.7734 37.7315C10.9193 37.5857 11.1016 37.5128 11.3203 37.5128H29.8047C30.0234 37.5128 30.2057 37.5857 30.3516 37.7315C30.4974 37.8773 30.5703 38.0596 30.5703 38.2784C30.5703 38.4971 30.4974 38.6794 30.3516 38.8253C30.2057 38.9711 30.0234 39.044 29.8047 39.044H11.3203C11.1016 39.044 10.9193 38.9711 10.7734 38.8253C10.6276 38.6794 10.5547 38.4971 10.5547 38.2784ZM11.3203 33.3565H24.8281C25.0469 33.3565 25.2292 33.2836 25.375 33.1378C25.5208 32.9919 25.5938 32.8096 25.5938 32.5909C25.5938 32.3721 25.5208 32.1898 25.375 32.044C25.2292 31.8982 25.0469 31.8253 24.8281 31.8253H11.3203C11.1016 31.8253 10.9193 31.8982 10.7734 32.044C10.6276 32.1898 10.5547 32.3721 10.5547 32.5909C10.5547 32.8096 10.6276 32.9919 10.7734 33.1378C10.9193 33.2836 11.1016 33.3565 11.3203 33.3565ZM42.6563 44.5128V53.6456C42.6563 54.1195 42.4831 54.5297 42.1367 54.876C41.7904 55.2224 41.362 55.3956 40.8516 55.3956H28.6563C28.1823 55.3956 27.7721 55.2224 27.4258 54.876C27.0794 54.5297 26.9063 54.1195 26.9063 53.6456V48.0674C25.8854 48.3227 24.8464 48.5049 23.7891 48.6143C22.7318 48.7237 21.6563 48.7784 20.5625 48.7784C20.125 48.7784 19.6784 48.7693 19.2227 48.751C18.7669 48.7328 18.3203 48.7055 17.8828 48.669L8.42188 55.2315C8.34896 55.3044 8.27604 55.35 8.20313 55.3682C8.13021 55.3865 8.05729 55.3956 7.98438 55.3956C7.91146 55.3956 7.83854 55.3865 7.76563 55.3682C7.69271 55.35 7.61979 55.3227 7.54688 55.2862C7.40104 55.1768 7.30078 55.0492 7.24609 54.9034C7.19141 54.7575 7.18229 54.6117 7.21875 54.4659L9.13281 46.2628C6.58073 45.0232 4.58464 43.4464 3.14453 41.5323C1.70443 39.6182 0.984375 37.5857 0.984375 35.4346C0.984375 33.9398 1.32161 32.5089 1.99609 31.1417C2.67057 29.7745 3.66406 28.5075 4.97656 27.3409C6.21615 26.2107 7.67448 25.2445 9.35156 24.4424C11.0286 23.6404 12.8516 23.0388 14.8203 22.6378C15.0391 22.6013 15.2396 22.6378 15.4219 22.7471C15.6042 22.8565 15.7135 23.0206 15.75 23.2393C15.7865 23.4581 15.75 23.6495 15.6406 23.8135C15.5313 23.9776 15.3672 24.0961 15.1484 24.169C13.3255 24.5336 11.6302 25.0896 10.0625 25.837C8.49479 26.5844 7.14583 27.4503 6.01563 28.4346C4.84896 29.4555 3.97396 30.5583 3.39063 31.7432C2.80729 32.9281 2.51563 34.1586 2.51563 35.4346C2.51563 37.3669 3.20833 39.1898 4.59375 40.9034C5.97917 42.6169 7.89323 44.0388 10.3359 45.169C10.4818 45.2419 10.6003 45.3604 10.6914 45.5245C10.7826 45.6885 10.7917 45.8617 10.7188 46.044L9.13281 52.8799L17.2266 47.2471C17.2995 47.1742 17.3815 47.1286 17.4727 47.1104C17.5638 47.0922 17.6458 47.0831 17.7188 47.0831C18.1927 47.156 18.6667 47.2016 19.1406 47.2198C19.6146 47.238 20.0885 47.2471 20.5625 47.2471C21.6563 47.2471 22.7318 47.1833 23.7891 47.0557C24.8464 46.9281 25.8854 46.7367 26.9063 46.4815V44.5128C26.9063 44.0388 27.0794 43.6286 27.4258 43.2823C27.7721 42.9359 28.1823 42.7628 28.6563 42.7628H34.6719C35.9479 41.7055 36.9232 40.5479 37.5977 39.2901C38.2721 38.0323 38.6094 36.7471 38.6094 35.4346C38.6094 34.0128 38.2266 32.6365 37.4609 31.3057C36.6953 29.975 35.6016 28.7628 34.1797 27.669C33.9974 27.5596 33.8971 27.3956 33.8789 27.1768C33.8607 26.9581 33.9063 26.7758 34.0156 26.6299C34.1615 26.4477 34.3346 26.3474 34.5352 26.3292C34.7357 26.3109 34.9271 26.3565 35.1094 26.4659C36.7135 27.7055 37.9531 29.0909 38.8281 30.6221C39.7031 32.1534 40.1406 33.7575 40.1406 35.4346C40.1406 36.7471 39.8672 38.0232 39.3203 39.2628C38.7734 40.5023 37.9714 41.669 36.9141 42.7628H40.8516C41.362 42.7628 41.7904 42.9359 42.1367 43.2823C42.4831 43.6286 42.6563 44.0388 42.6563 44.5128ZM41.125 44.5128C41.125 44.4763 41.0977 44.4307 41.043 44.376C40.9883 44.3214 40.9245 44.294 40.8516 44.294H28.6563C28.5833 44.294 28.5286 44.3214 28.4922 44.376C28.4557 44.4307 28.4375 44.4763 28.4375 44.5128V53.6456C28.4375 53.682 28.4557 53.7276 28.4922 53.7823C28.5286 53.837 28.5833 53.8643 28.6563 53.8643H40.8516C40.9245 53.8643 40.9883 53.837 41.043 53.7823C41.0977 53.7276 41.125 53.682 41.125 53.6456V44.5128ZM37.7344 49.1065C37.7344 49.2159 37.6979 49.3344 37.625 49.462C37.5521 49.5896 37.4609 49.6898 37.3516 49.7628L32.9766 52.2784C32.9036 52.3148 32.8398 52.3422 32.7852 52.3604C32.7305 52.3786 32.6667 52.3878 32.5938 52.3878C32.5208 52.3878 32.4479 52.3786 32.375 52.3604C32.3021 52.3422 32.2474 52.3148 32.2109 52.2784C32.0651 52.2055 31.9648 52.1052 31.9102 51.9776C31.8555 51.85 31.8281 51.7315 31.8281 51.6221V46.5362C31.8281 46.4268 31.8555 46.3083 31.9102 46.1807C31.9648 46.0531 32.0651 45.9529 32.2109 45.8799C32.3203 45.807 32.4388 45.7706 32.5664 45.7706C32.694 45.7706 32.8307 45.807 32.9766 45.8799L37.3516 48.3956C37.4609 48.4685 37.5521 48.5687 37.625 48.6964C37.6979 48.824 37.7344 48.9607 37.7344 49.1065ZM35.4375 49.1065L33.3594 47.9034V50.2549L35.4375 49.1065ZM50.0391 9.34869C50.0755 9.34869 50.1302 9.33958 50.2031 9.32135C50.276 9.30312 50.349 9.27578 50.4219 9.23932L53.375 7.54401C53.5573 7.43463 53.6758 7.27968 53.7305 7.07916C53.7852 6.87864 53.7578 6.68724 53.6484 6.50494C53.5391 6.32265 53.3841 6.20416 53.1836 6.14948C52.9831 6.09479 52.7917 6.12213 52.6094 6.23151L49.6563 7.92682C49.474 8.03619 49.3555 8.19114 49.3008 8.39166C49.2461 8.59218 49.2552 8.78359 49.3281 8.96588C49.401 9.11171 49.5013 9.21198 49.6289 9.26666C49.7565 9.32135 49.8932 9.34869 50.0391 9.34869ZM45.1172 5.90338C45.1536 5.93984 45.2083 5.96718 45.2813 5.98541C45.3542 6.00364 45.4089 6.01276 45.4453 6.01276C45.5911 6.01276 45.7279 5.9763 45.8555 5.90338C45.9831 5.83046 46.0833 5.73932 46.1563 5.62994L47.9609 2.51276C48.0339 2.33046 48.043 2.13906 47.9883 1.93854C47.9336 1.73802 47.8151 1.58307 47.6328 1.47369C47.4505 1.36432 47.2591 1.33698 47.0586 1.39166C46.8581 1.44635 46.7031 1.56484 46.5938 1.74713L44.7891 4.86432C44.6797 5.04661 44.6523 5.23802 44.707 5.43854C44.7617 5.63906 44.8984 5.79401 45.1172 5.90338ZM49.875 14.2159C49.875 14.4346 49.9479 14.6169 50.0938 14.7628C50.2396 14.9086 50.4219 14.9815 50.6406 14.9815H54.25C54.4688 14.9815 54.651 14.9086 54.7969 14.7628C54.9427 14.6169 55.0156 14.4346 55.0156 14.2159C55.0156 13.9971 54.9427 13.8148 54.7969 13.669C54.651 13.5232 54.4688 13.4503 54.25 13.4503H50.6406C50.4219 13.4503 50.2396 13.5232 50.0938 13.669C49.9479 13.8148 49.875 13.9971 49.875 14.2159ZM17.4453 22.6378C17.6641 21.8721 18.0013 21.1794 18.457 20.5596C18.9128 19.9398 19.487 19.4294 20.1797 19.0284L24.1719 16.7315C24.2813 16.695 24.3815 16.6677 24.4727 16.6495C24.5638 16.6312 24.6641 16.6404 24.7734 16.6768C24.8099 16.6768 24.8464 16.6859 24.8828 16.7042C24.9193 16.7224 24.9557 16.7315 24.9922 16.7315C27.0339 15.2003 28.8477 13.5687 30.4336 11.837C32.0195 10.1052 33.2682 8.36432 34.1797 6.61432L34.125 6.50494C33.6875 5.73932 33.5872 4.93724 33.8242 4.09869C34.0612 3.26015 34.5443 2.62213 35.2734 2.18463C36.0391 1.74713 36.8411 1.64687 37.6797 1.88385C38.5182 2.12083 39.1563 2.6039 39.5938 3.33307L42.7109 8.74713C43.5495 8.30963 44.4154 8.2276 45.3086 8.50104C46.2018 8.77448 46.8854 9.31224 47.3594 10.1143C47.8333 10.9529 47.9609 11.8279 47.7422 12.7393C47.5234 13.6508 47.013 14.3617 46.2109 14.8721L49.3281 20.2862C49.5469 20.6508 49.6836 21.0336 49.7383 21.4346C49.793 21.8357 49.7656 22.2367 49.6563 22.6378C49.5469 23.0388 49.3646 23.4125 49.1094 23.7589C48.8542 24.1052 48.5443 24.3695 48.1797 24.5518C47.9609 24.6977 47.7148 24.807 47.4414 24.8799C47.168 24.9529 46.9036 24.9893 46.6484 24.9893C46.5026 24.9893 46.3568 24.9802 46.2109 24.962C46.0651 24.9437 45.9375 24.9164 45.8281 24.8799C45.3906 24.7706 45.0078 24.5883 44.6797 24.3331C44.3516 24.0779 44.0964 23.768 43.9141 23.4034L43.8047 23.294C41.8724 23.2211 39.7669 23.4307 37.4883 23.9229C35.2096 24.4151 32.9036 25.1534 30.5703 26.1378L36.0938 33.5753C36.349 33.9763 36.4583 34.4047 36.4219 34.8604C36.3854 35.3161 36.2031 35.6898 35.875 35.9815L34.6719 37.0753C34.4896 37.2211 34.2982 37.3396 34.0977 37.4307C33.8971 37.5219 33.6875 37.5674 33.4688 37.5674C33.4323 37.5674 33.3958 37.5674 33.3594 37.5674C33.3229 37.5674 33.2865 37.5674 33.25 37.5674C33.0313 37.531 32.8125 37.449 32.5938 37.3214C32.375 37.1937 32.1927 37.0388 32.0469 36.8565L26.25 29.0909L26.0313 29.2003C25.5938 29.4919 25.1289 29.7016 24.6367 29.8292C24.1445 29.9568 23.6432 30.0206 23.1328 30.0206C22.8776 30.0206 22.6224 30.0023 22.3672 29.9659C22.112 29.9294 21.8568 29.8747 21.6016 29.8018C20.8359 29.5831 20.1432 29.2458 19.5234 28.7901C18.9036 28.3344 18.4115 27.7602 18.0469 27.0674C17.6458 26.3747 17.3906 25.6456 17.2813 24.8799C17.1719 24.1143 17.2266 23.3669 17.4453 22.6378ZM34.8359 34.5049L29.4766 27.2315L27.5625 28.3253L33.25 35.9268C33.2865 35.9633 33.3229 35.9906 33.3594 36.0089C33.3958 36.0271 33.4141 36.0362 33.4141 36.0362C33.4505 36.0362 33.487 36.0271 33.5234 36.0089C33.5599 35.9906 33.5964 35.9633 33.6328 35.9268L34.8359 34.8331C34.8724 34.7966 34.8997 34.751 34.918 34.6964C34.9362 34.6417 34.9089 34.5779 34.8359 34.5049ZM43.4766 10.1143L45.4453 13.5049C45.8828 13.2133 46.1563 12.8214 46.2656 12.3292C46.375 11.837 46.3021 11.3539 46.0469 10.8799C45.7917 10.4424 45.418 10.1508 44.9258 10.0049C44.4336 9.85911 43.9505 9.89557 43.4766 10.1143ZM35.4375 5.73932L45.2266 22.6378C45.3359 22.82 45.4727 22.975 45.6367 23.1026C45.8008 23.2302 45.9922 23.3305 46.2109 23.4034C46.4297 23.4398 46.6393 23.449 46.8398 23.4307C47.0404 23.4125 47.2318 23.3487 47.4141 23.2393C47.5964 23.1299 47.7513 22.9932 47.8789 22.8292C48.0065 22.6651 48.1068 22.4737 48.1797 22.2549C48.2526 22.0362 48.2708 21.8266 48.2344 21.626C48.1979 21.4255 48.125 21.2341 48.0156 21.0518L38.2266 4.09869C38.0807 3.84349 37.8893 3.65208 37.6523 3.52448C37.4154 3.39687 37.151 3.33307 36.8594 3.33307C36.7135 3.33307 36.5768 3.34218 36.4492 3.36041C36.3216 3.37864 36.1849 3.42421 36.0391 3.49713C35.8568 3.60651 35.7018 3.75234 35.5742 3.93463C35.4466 4.11692 35.3464 4.29921 35.2734 4.48151C35.237 4.70026 35.2279 4.91901 35.2461 5.13776C35.2643 5.35651 35.3281 5.55703 35.4375 5.73932ZM25.8125 18.044L29.75 24.8253C32.0469 23.8409 34.3164 23.0844 36.5586 22.5557C38.8008 22.0271 40.9245 21.7628 42.9297 21.7628L35.1094 8.14557C34.0885 9.85911 32.7852 11.5635 31.1992 13.2589C29.6133 14.9542 27.8177 16.5492 25.8125 18.044ZM19.3594 26.3018C19.651 26.8122 20.0247 27.2406 20.4805 27.587C20.9362 27.9333 21.4375 28.1794 21.9844 28.3253C22.5677 28.4711 23.1419 28.5075 23.707 28.4346C24.2721 28.3617 24.7917 28.1794 25.2656 27.8878L28.6016 25.9737L24.2813 18.4268L20.9453 20.3956C20.4349 20.6508 20.0065 21.0062 19.6602 21.462C19.3138 21.9177 19.0677 22.4372 18.9219 23.0206C18.776 23.5674 18.7396 24.1234 18.8125 24.6885C18.8854 25.2536 19.0677 25.7914 19.3594 26.3018ZM5.19531 10.2237C5.19531 8.94765 5.65104 7.8539 6.5625 6.94244C7.47396 6.03099 8.56771 5.57526 9.84375 5.57526C11.1198 5.57526 12.2135 6.03099 13.125 6.94244C14.0365 7.8539 14.4922 8.94765 14.4922 10.2237C14.4922 11.4997 14.0365 12.5935 13.125 13.5049C12.2135 14.4164 11.1198 14.8721 9.84375 14.8721C8.56771 14.8721 7.47396 14.4164 6.5625 13.5049C5.65104 12.5935 5.19531 11.4997 5.19531 10.2237ZM6.72656 10.2237C6.72656 11.0622 7.02734 11.7914 7.62891 12.4112C8.23047 13.031 8.96875 13.3409 9.84375 13.3409C10.6823 13.3409 11.4115 13.031 12.0313 12.4112C12.651 11.7914 12.9609 11.0622 12.9609 10.2237C12.9609 9.34869 12.651 8.61041 12.0313 8.00885C11.4115 7.40729 10.6823 7.10651 9.84375 7.10651C8.96875 7.10651 8.23047 7.40729 7.62891 8.00885C7.02734 8.61041 6.72656 9.34869 6.72656 10.2237ZM0.984375 11.044V9.40338C0.984375 9.0388 1.11198 8.7289 1.36719 8.47369C1.6224 8.21849 1.93229 8.09088 2.29688 8.09088C2.58854 8.09088 2.80729 8.00885 2.95313 7.84479C3.09896 7.68073 3.1901 7.56224 3.22656 7.48932C3.26302 7.4164 3.29036 7.27057 3.30859 7.05182C3.32682 6.83307 3.22656 6.59609 3.00781 6.34088C2.89844 6.23151 2.80729 6.09479 2.73438 5.93073C2.66146 5.76666 2.625 5.61171 2.625 5.46588C2.625 5.28359 2.66146 5.11041 2.73438 4.94635C2.80729 4.78229 2.89844 4.64557 3.00781 4.53619L4.15625 3.38776C4.41146 3.13255 4.71224 3.00494 5.05859 3.00494C5.40495 3.00494 5.70573 3.13255 5.96094 3.38776C6.21615 3.60651 6.45313 3.70677 6.67188 3.68854C6.89063 3.67031 7.03646 3.64296 7.10938 3.60651C7.18229 3.57005 7.30078 3.4789 7.46484 3.33307C7.62891 3.18724 7.71094 2.96849 7.71094 2.67682C7.71094 2.31224 7.83854 2.00234 8.09375 1.74713C8.34896 1.49192 8.65885 1.36432 9.02344 1.36432H10.6641C10.9922 1.36432 11.2839 1.49192 11.5391 1.74713C11.7943 2.00234 11.9219 2.31224 11.9219 2.67682C11.9219 2.96849 12.013 3.18724 12.1953 3.33307C12.3776 3.4789 12.5052 3.57005 12.5781 3.60651C12.651 3.64296 12.7969 3.67031 13.0156 3.68854C13.2344 3.70677 13.4531 3.60651 13.6719 3.38776C13.9271 3.13255 14.237 3.00494 14.6016 3.00494C14.9661 3.00494 15.276 3.13255 15.5313 3.38776L16.6797 4.53619C16.7891 4.64557 16.8802 4.78229 16.9531 4.94635C17.026 5.11041 17.0625 5.28359 17.0625 5.46588C17.0625 5.61171 17.026 5.76666 16.9531 5.93073C16.8802 6.09479 16.7891 6.23151 16.6797 6.34088C16.4609 6.59609 16.3607 6.83307 16.3789 7.05182C16.3971 7.27057 16.4245 7.4164 16.4609 7.48932C16.4974 7.56224 16.5794 7.68073 16.707 7.84479C16.8346 8.00885 17.0625 8.09088 17.3906 8.09088C17.7552 8.09088 18.0651 8.21849 18.3203 8.47369C18.5755 8.7289 18.7031 9.0388 18.7031 9.40338V11.044C18.7031 11.3721 18.5755 11.6638 18.3203 11.919C18.0651 12.1742 17.7552 12.3018 17.3906 12.3018C17.0625 12.3018 16.8346 12.393 16.707 12.5753C16.5794 12.7575 16.4974 12.8852 16.4609 12.9581C16.4245 13.031 16.3971 13.1768 16.3789 13.3956C16.3607 13.6143 16.4609 13.8331 16.6797 14.0518C16.9349 14.307 17.0625 14.6169 17.0625 14.9815C17.0625 15.3461 16.9349 15.656 16.6797 15.9112L15.5313 17.0596C15.3854 17.169 15.2396 17.2602 15.0938 17.3331C14.9479 17.406 14.7839 17.4424 14.6016 17.4424C14.4193 17.4424 14.2552 17.406 14.1094 17.3331C13.9635 17.2602 13.8177 17.169 13.6719 17.0596C13.4531 16.8409 13.2344 16.7406 13.0156 16.7589C12.7969 16.7771 12.651 16.8044 12.5781 16.8409C12.5052 16.8773 12.3776 16.9594 12.1953 17.087C12.013 17.2146 11.9219 17.4424 11.9219 17.7706C11.9219 18.1352 11.7943 18.445 11.5391 18.7003C11.2839 18.9555 10.9922 19.0831 10.6641 19.0831H9.02344C8.65885 19.0831 8.34896 18.9555 8.09375 18.7003C7.83854 18.445 7.71094 18.1352 7.71094 17.7706C7.71094 17.4424 7.62891 17.2146 7.46484 17.087C7.30078 16.9594 7.18229 16.8773 7.10938 16.8409C7.03646 16.8044 6.89063 16.7771 6.67188 16.7589C6.45313 16.7406 6.21615 16.8409 5.96094 17.0596C5.85156 17.169 5.71484 17.2602 5.55078 17.3331C5.38672 17.406 5.23177 17.4424 5.08594 17.4424C4.90365 17.4424 4.73047 17.406 4.56641 17.3331C4.40234 17.2602 4.26563 17.169 4.15625 17.0596L3.00781 15.9112C2.89844 15.7654 2.80729 15.6195 2.73438 15.4737C2.66146 15.3279 2.625 15.1638 2.625 14.9815C2.625 14.7992 2.66146 14.6352 2.73438 14.4893C2.80729 14.3435 2.89844 14.1977 3.00781 14.0518C3.22656 13.8331 3.32682 13.6143 3.30859 13.3956C3.29036 13.1768 3.26302 13.031 3.22656 12.9581C3.1901 12.8852 3.09896 12.7575 2.95313 12.5753C2.80729 12.393 2.58854 12.3018 2.29688 12.3018C1.93229 12.3018 1.6224 12.1742 1.36719 11.919C1.11198 11.6638 0.984375 11.3721 0.984375 11.044ZM2.51563 10.8253C2.98958 10.8617 3.41797 11.0167 3.80078 11.2901C4.18359 11.5635 4.46615 11.919 4.64844 12.3565C4.83073 12.8305 4.88542 13.2953 4.8125 13.751C4.73958 14.2068 4.55729 14.6169 4.26563 14.9815L5.08594 15.8018C5.45052 15.5102 5.86068 15.3279 6.31641 15.2549C6.77214 15.182 7.23698 15.2367 7.71094 15.419C8.14844 15.6013 8.50391 15.8839 8.77734 16.2667C9.05078 16.6495 9.20573 17.0779 9.24219 17.5518H10.4453C10.4818 17.0779 10.6367 16.6495 10.9102 16.2667C11.1836 15.8839 11.5391 15.6013 11.9766 15.419C12.4505 15.2367 12.9154 15.182 13.3711 15.2549C13.8268 15.3279 14.237 15.5102 14.6016 15.8018L15.4219 14.9815C15.1302 14.6169 14.9479 14.2068 14.875 13.751C14.8021 13.2953 14.8568 12.8305 15.0391 12.3565C15.2214 11.919 15.5039 11.5635 15.8867 11.2901C16.2695 11.0167 16.6979 10.8617 17.1719 10.8253V9.62213C16.6979 9.58567 16.2695 9.43073 15.8867 9.15729C15.5039 8.88385 15.2214 8.52838 15.0391 8.09088C14.8568 7.61692 14.8021 7.15208 14.875 6.69635C14.9479 6.24062 15.1302 5.83046 15.4219 5.46588L14.6016 4.64557C14.237 4.93724 13.8268 5.11953 13.3711 5.19244C12.9154 5.26536 12.4505 5.21067 11.9766 5.02838C11.5391 4.84609 11.1836 4.56354 10.9102 4.18073C10.6367 3.79791 10.4818 3.36953 10.4453 2.89557H9.24219C9.20573 3.36953 9.05078 3.79791 8.77734 4.18073C8.50391 4.56354 8.13021 4.84609 7.65625 5.02838C7.21875 5.21067 6.77214 5.26536 6.31641 5.19244C5.86068 5.11953 5.45052 4.93724 5.08594 4.64557L4.26563 5.46588C4.55729 5.83046 4.73958 6.24062 4.8125 6.69635C4.88542 7.15208 4.83073 7.59869 4.64844 8.03619C4.46615 8.51015 4.18359 8.88385 3.80078 9.15729C3.41797 9.43073 2.98958 9.58567 2.51563 9.62213V10.8253ZM54.9609 31.169C54.8151 32.2992 54.5234 33.3656 54.0859 34.3682C53.6484 35.3708 53.2839 36.1273 52.9922 36.6378C52.6641 37.1846 52.181 37.9047 51.543 38.7979C50.905 39.6911 50.1302 40.4659 49.2188 41.1221C48.599 41.5596 47.9974 41.8969 47.4141 42.1339C46.8307 42.3708 46.2474 42.4893 45.6641 42.4893C45.263 42.4893 44.862 42.4346 44.4609 42.3253C44.0599 42.2159 43.6771 42.0518 43.3125 41.8331L43.0391 41.669C42.8203 41.5232 42.6289 41.35 42.4648 41.1495C42.3008 40.949 42.1823 40.7211 42.1094 40.4659C42.0365 40.2107 42.0182 39.9555 42.0547 39.7003C42.0911 39.445 42.1823 39.2081 42.3281 38.9893L43.4219 37.0753C43.6771 36.6013 44.069 36.2914 44.5977 36.1456C45.1263 35.9997 45.6276 36.0727 46.1016 36.3643L46.7578 36.7471C46.8307 36.7836 46.9128 36.7927 47.0039 36.7745C47.0951 36.7562 47.1771 36.7107 47.25 36.6378C47.5781 36.3096 47.8789 35.945 48.1523 35.544C48.4258 35.143 48.6901 34.7419 48.9453 34.3409C49.1641 33.9034 49.3737 33.4659 49.5742 33.0284C49.7747 32.5909 49.9479 32.1534 50.0938 31.7159C50.1302 31.643 50.1302 31.5609 50.0938 31.4698C50.0573 31.3786 50.0026 31.2966 49.9297 31.2237L49.2734 30.8409C49.0547 30.7315 48.8633 30.5674 48.6992 30.3487C48.5352 30.1299 48.4167 29.9112 48.3438 29.6924C48.2708 29.4372 48.2526 29.182 48.2891 28.9268C48.3255 28.6716 48.4167 28.4164 48.5625 28.1612L49.6563 26.3018C49.9115 25.8279 50.3034 25.518 50.832 25.3721C51.3607 25.2263 51.862 25.281 52.3359 25.5362L52.6094 25.7003C53.5208 26.2471 54.1771 26.9854 54.5781 27.9151C54.9792 28.8448 55.1068 29.9294 54.9609 31.169ZM51.8438 27.0674L51.5703 26.9034C51.4609 26.8305 51.3516 26.8122 51.2422 26.8487C51.1328 26.8852 51.0417 26.9581 50.9688 27.0674L49.875 28.9268C49.8385 28.9997 49.8203 29.0635 49.8203 29.1182C49.8203 29.1729 49.8203 29.2185 49.8203 29.2549C49.8568 29.3279 49.8841 29.3825 49.9023 29.419C49.9206 29.4555 49.9661 29.4919 50.0391 29.5284L50.6953 29.9112C51.0964 30.1299 51.3789 30.4581 51.543 30.8956C51.707 31.3331 51.7161 31.7706 51.5703 32.2081C51.388 32.7185 51.1875 33.2107 50.9688 33.6846C50.75 34.1586 50.513 34.6325 50.2578 35.1065C49.9661 35.5805 49.6745 36.0271 49.3828 36.4464C49.0911 36.8656 48.763 37.2575 48.3984 37.6221C48.1068 37.9867 47.7331 38.2055 47.2773 38.2784C46.8216 38.3513 46.3932 38.2784 45.9922 38.0596L45.3359 37.6768C45.2995 37.6768 45.263 37.6677 45.2266 37.6495C45.1901 37.6312 45.1536 37.6221 45.1172 37.6221C45.0443 37.6221 44.9714 37.6404 44.8984 37.6768C44.8255 37.7133 44.7708 37.768 44.7344 37.8409L43.6406 39.7549C43.6042 39.7914 43.5859 39.837 43.5859 39.8917C43.5859 39.9464 43.5859 40.0102 43.5859 40.0831C43.6224 40.1195 43.6497 40.1651 43.668 40.2198C43.6862 40.2745 43.7318 40.32 43.8047 40.3565L44.0781 40.4659C44.7344 40.8669 45.4089 41.0219 46.1016 40.9307C46.7943 40.8396 47.5234 40.5023 48.2891 39.919C49.1276 39.2992 49.8385 38.57 50.4219 37.7315C51.0052 36.893 51.4063 36.2732 51.625 35.8721C51.8802 35.5075 52.2175 34.8604 52.6367 33.9307C53.056 33.001 53.3203 32.0075 53.4297 30.9503C53.5391 30.0023 53.4661 29.2094 53.2109 28.5714C52.9557 27.9333 52.5 27.432 51.8438 27.0674Z" fill="#29B79B"/>
</svg>
