<svg width="45" height="46" viewBox="0 0 45 46" fill="none" xmlns="http://www.w3.org/2000/svg">
<g clip-path="url(#clip0_25_274)">
<path d="M41.5283 15.8667C42.0264 15.3979 42.4219 14.8413 42.7148 14.1968C43.0078 13.5522 43.1543 12.8638 43.1543 12.1313C43.1543 10.6958 42.6489 9.47266 41.6382 8.46191C40.6274 7.45117 39.4189 6.9458 38.0127 6.9458C36.5771 6.9458 35.354 7.45117 34.3433 8.46191C33.3325 9.47266 32.8271 10.6958 32.8271 12.1313C32.8271 13.0396 33.0396 13.8672 33.4644 14.6143C33.8892 15.3613 34.4678 15.9692 35.2002 16.438C34.7021 16.7603 34.3066 17.1924 34.0137 17.7344C33.7207 18.2764 33.5742 18.855 33.5742 19.4702V24.6558H30.6299V20.9644C30.6299 19.646 30.1904 18.5034 29.3115 17.5366C28.4326 16.5698 27.3486 15.9985 26.0596 15.8228C26.5576 15.354 26.9531 14.8047 27.2461 14.1748C27.5391 13.5449 27.6855 12.8638 27.6855 12.1313C27.6855 10.6958 27.1802 9.47266 26.1694 8.46191C25.1587 7.45117 23.9355 6.9458 22.5 6.9458C21.0645 6.9458 19.8413 7.45117 18.8306 8.46191C17.8198 9.47266 17.3145 10.6958 17.3145 12.1313C17.3145 12.8638 17.4609 13.5449 17.7539 14.1748C18.0469 14.8047 18.4424 15.354 18.9404 15.8228C17.6514 15.9985 16.5674 16.5698 15.6885 17.5366C14.8096 18.5034 14.3701 19.646 14.3701 20.9644V24.6558H11.4258V19.4702C11.4258 18.855 11.2793 18.2764 10.9863 17.7344C10.6934 17.1924 10.2979 16.7603 9.7998 16.438C10.5322 15.9692 11.1108 15.3613 11.5356 14.6143C11.9604 13.8672 12.1729 13.0396 12.1729 12.1313C12.1729 10.6958 11.6675 9.47266 10.6567 8.46191C9.646 7.45117 8.42285 6.9458 6.9873 6.9458C5.58105 6.9458 4.37256 7.45117 3.36182 8.46191C2.35107 9.47266 1.8457 10.6958 1.8457 12.1313C1.8457 12.8638 1.99219 13.5522 2.28516 14.1968C2.57812 14.8413 2.97363 15.3979 3.47168 15.8667C2.59277 16.0132 1.85303 16.4233 1.25244 17.0972C0.651855 17.771 0.351562 18.562 0.351562 19.4702V30.5444C0.351562 31.4526 0.637207 32.2437 1.2085 32.9175C1.77979 33.5913 2.49023 34.0161 3.33984 34.1919V45.3101H4.79004V34.2358H11.4258V44.563C11.4258 44.7681 11.499 44.9438 11.6455 45.0903C11.792 45.2368 11.9678 45.3101 12.1729 45.3101H16.6113C16.8164 45.3101 16.9849 45.2368 17.1167 45.0903C17.2485 44.9438 17.3145 44.7681 17.3145 44.563V32.7856H21.7529V43.8159H18.8086V45.3101H26.1914V43.8159H23.2471V32.7856H27.6855V44.563C27.6855 44.7681 27.7515 44.9438 27.8833 45.0903C28.0151 45.2368 28.1836 45.3101 28.3887 45.3101H32.8271C33.0322 45.3101 33.208 45.2368 33.3545 45.0903C33.501 44.9438 33.5742 44.7681 33.5742 44.563V34.2358H40.21V45.3101H41.6602V34.1919C42.5098 34.0161 43.2202 33.5913 43.7915 32.9175C44.3628 32.2437 44.6484 31.4526 44.6484 30.5444V19.4702C44.6484 18.562 44.3481 17.771 43.7476 17.0972C43.147 16.4233 42.4072 16.0132 41.5283 15.8667ZM34.3213 12.1313C34.3213 11.106 34.6802 10.2344 35.3979 9.5166C36.1157 8.79883 36.9873 8.43994 38.0127 8.43994C39.0088 8.43994 39.8657 8.79883 40.5835 9.5166C41.3013 10.2344 41.6602 11.106 41.6602 12.1313C41.6602 13.1274 41.3013 13.9917 40.5835 14.7241C39.8657 15.4565 39.0088 15.8228 38.0127 15.8228C36.9873 15.8228 36.1157 15.4565 35.3979 14.7241C34.6802 13.9917 34.3213 13.1274 34.3213 12.1313ZM18.8086 12.1313C18.8086 11.106 19.1675 10.2344 19.8853 9.5166C20.603 8.79883 21.4746 8.43994 22.5 8.43994C23.5254 8.43994 24.397 8.79883 25.1147 9.5166C25.8325 10.2344 26.1914 11.106 26.1914 12.1313C26.1914 13.1274 25.8325 13.9917 25.1147 14.7241C24.397 15.4565 23.5254 15.8228 22.5 15.8228C21.4746 15.8228 20.603 15.4565 19.8853 14.7241C19.1675 13.9917 18.8086 13.1274 18.8086 12.1313ZM23.6426 17.2729L22.5 20.3491L21.3574 17.2729H23.6426ZM15.8643 20.9644C15.8643 19.939 16.2231 19.0674 16.9409 18.3496C17.6587 17.6318 18.5303 17.2729 19.5557 17.2729H19.7754L21.7969 22.6782C21.8555 22.8247 21.9507 22.9419 22.0825 23.0298C22.2144 23.1177 22.3535 23.1616 22.5 23.1616C22.6465 23.1616 22.7856 23.1177 22.9175 23.0298C23.0493 22.9419 23.1445 22.8247 23.2031 22.6782L25.2246 17.2729H25.4443C26.4697 17.2729 27.3413 17.6318 28.0591 18.3496C28.7769 19.0674 29.1357 19.939 29.1357 20.9644V24.6558H26.1914C25.9863 24.6558 25.8105 24.729 25.6641 24.8755C25.5176 25.022 25.4443 25.1978 25.4443 25.4028V28.3472H19.5557V25.4028C19.5557 25.1978 19.4824 25.022 19.3359 24.8755C19.1895 24.729 19.0137 24.6558 18.8086 24.6558H15.8643V20.9644ZM3.33984 12.1313C3.33984 11.106 3.69873 10.2344 4.4165 9.5166C5.13428 8.79883 5.99121 8.43994 6.9873 8.43994C8.0127 8.43994 8.88428 8.79883 9.60205 9.5166C10.3198 10.2344 10.6787 11.106 10.6787 12.1313C10.6787 13.1274 10.3198 13.9917 9.60205 14.7241C8.88428 15.4565 8.0127 15.8228 6.9873 15.8228C5.99121 15.8228 5.13428 15.4565 4.4165 14.7241C3.69873 13.9917 3.33984 13.1274 3.33984 12.1313ZM15.8643 43.8159H12.9199V33.4888C12.9199 33.2837 12.8467 33.1152 12.7002 32.9834C12.5537 32.8516 12.3779 32.7856 12.1729 32.7856H4.04297C3.45703 32.7856 2.94434 32.5659 2.50488 32.1265C2.06543 31.687 1.8457 31.1597 1.8457 30.5444V19.4702C1.8457 18.8843 2.06543 18.3716 2.50488 17.9321C2.94434 17.4927 3.45703 17.2729 4.04297 17.2729H7.73438C8.34961 17.2729 8.87695 17.4927 9.31641 17.9321C9.75586 18.3716 9.97559 18.8843 9.97559 19.4702V25.4028C9.97559 25.6079 10.0415 25.7837 10.1733 25.9302C10.3052 26.0767 10.4736 26.1499 10.6787 26.1499H18.0615V28.3472H7.73438V21.7114H6.28418V29.0942C6.28418 29.2993 6.35742 29.4678 6.50391 29.5996C6.65039 29.7314 6.81152 29.7974 6.9873 29.7974H13.667C14.2529 29.7974 14.7656 30.0171 15.2051 30.4565C15.6445 30.896 15.8643 31.4233 15.8643 32.0386V43.8159ZM27.7295 31.2915H17.2705C17.2119 31.0278 17.124 30.7715 17.0068 30.5225C16.8896 30.2734 16.7578 30.0317 16.6113 29.7974H28.3887C28.2422 30.0317 28.1104 30.2734 27.9932 30.5225C27.876 30.7715 27.7881 31.0278 27.7295 31.2915ZM43.1543 30.5444C43.1543 31.1597 42.9346 31.687 42.4951 32.1265C42.0557 32.5659 41.543 32.7856 40.957 32.7856H32.8271C32.6221 32.7856 32.4463 32.8516 32.2998 32.9834C32.1533 33.1152 32.0801 33.2837 32.0801 33.4888V43.8159H29.1357V32.0386C29.1357 31.4233 29.3555 30.896 29.7949 30.4565C30.2344 30.0171 30.7471 29.7974 31.333 29.7974H38.0127C38.1885 29.7974 38.3496 29.7314 38.4961 29.5996C38.6426 29.4678 38.7158 29.2993 38.7158 29.0942V21.7114H37.2656V28.3472H26.9385V26.1499H34.3213C34.5264 26.1499 34.6948 26.0767 34.8267 25.9302C34.9585 25.7837 35.0244 25.6079 35.0244 25.4028V19.4702C35.0244 18.8843 35.2441 18.3716 35.6836 17.9321C36.123 17.4927 36.6504 17.2729 37.2656 17.2729H40.957C41.543 17.2729 42.0557 17.4927 42.4951 17.9321C42.9346 18.3716 43.1543 18.8843 43.1543 19.4702V30.5444ZM21.7529 24.6558H23.2471V26.1499H21.7529V24.6558ZM18.8086 0.310059H8.48145C8.27637 0.310059 8.10059 0.383301 7.9541 0.529785C7.80762 0.67627 7.73438 0.852051 7.73438 1.05713V4.74854C7.73438 4.95361 7.80762 5.12939 7.9541 5.27588C8.10059 5.42236 8.27637 5.49561 8.48145 5.49561H11.4258V6.9458C11.4258 7.09229 11.4624 7.22412 11.5356 7.34131C11.6089 7.4585 11.7041 7.54639 11.8213 7.60498C11.8799 7.63428 11.9385 7.65625 11.9971 7.6709C12.0557 7.68555 12.1143 7.69287 12.1729 7.69287C12.2607 7.69287 12.3413 7.67822 12.4146 7.64893C12.4878 7.61963 12.5537 7.59033 12.6123 7.56104L15.3809 5.49561H18.8086C19.0137 5.49561 19.1895 5.42236 19.3359 5.27588C19.4824 5.12939 19.5557 4.95361 19.5557 4.74854V1.05713C19.5557 0.852051 19.4824 0.67627 19.3359 0.529785C19.1895 0.383301 19.0137 0.310059 18.8086 0.310059ZM18.0615 4.00146H15.1172C15.0293 4.00146 14.9487 4.01611 14.8755 4.04541C14.8022 4.07471 14.7363 4.104 14.6777 4.1333L12.9199 5.49561V4.74854C12.9199 4.54346 12.8467 4.36768 12.7002 4.22119C12.5537 4.07471 12.3779 4.00146 12.1729 4.00146H9.22852V1.8042H18.0615V4.00146ZM26.1914 2.50732H27.6855V4.00146H26.1914V2.50732ZM29.1357 2.50732H30.6299V4.00146H29.1357V2.50732ZM32.0801 2.50732H33.5742V4.00146H32.0801V2.50732Z" fill="#29B79B"/>
</g>
<defs>
<clipPath id="clip0_25_274">
<rect width="45" height="45" fill="white" transform="matrix(1 0 0 -1 0 45.3101)"/>
</clipPath>
</defs>
</svg>
