<svg width="56" height="57" viewBox="0 0 56 57" fill="none" xmlns="http://www.w3.org/2000/svg">
<path d="M6.125 55.5049C7.10938 55.5049 8.0026 55.2589 8.80469 54.7667C9.60677 54.2745 10.2266 53.6273 10.6641 52.8253C12.0859 52.7523 13.6536 52.4242 15.3672 51.8409C17.0807 51.2575 18.9036 50.4372 20.8359 49.3799H21.0547C21.2734 51.0935 22.0391 52.5427 23.3516 53.7276C24.6641 54.9125 26.2135 55.5049 28 55.5049C29.7865 55.5049 31.3359 54.9125 32.6484 53.7276C33.9609 52.5427 34.7266 51.0935 34.9453 49.3799H35.1641C37.2786 50.5466 39.2565 51.4216 41.0977 52.0049C42.9388 52.5883 44.5885 52.8799 46.0469 52.8799C47.0312 52.8799 47.9245 52.7341 48.7266 52.4424C49.5286 52.1508 50.2214 51.7315 50.8047 51.1846C52.1172 49.8721 52.6732 47.9945 52.4727 45.5518C52.2721 43.1091 51.3698 40.2471 49.7656 36.9659C50.0573 36.6378 50.2943 36.2641 50.4766 35.8448C50.6589 35.4255 50.75 34.9789 50.75 34.5049C50.75 33.557 50.4036 32.7367 49.7109 32.044C49.0182 31.3513 48.1979 31.0049 47.25 31.0049C47.1042 31.0049 46.9492 31.0141 46.7852 31.0323C46.6211 31.0505 46.4661 31.0961 46.3203 31.169C46.0286 30.695 45.7188 30.2302 45.3906 29.7745C45.0625 29.3187 44.7161 28.8539 44.3516 28.3799C45.5911 26.7393 46.7031 25.1352 47.6875 23.5674C48.6354 21.9633 49.4557 20.432 50.1484 18.9737C50.8411 17.5154 51.388 16.1117 51.7891 14.7628C52.1901 13.4503 52.4089 12.2107 52.4453 11.044C53.2474 10.6065 53.8945 9.98671 54.3867 9.18463C54.8789 8.38255 55.125 7.48932 55.125 6.50494C55.125 5.04661 54.6146 3.80703 53.5938 2.78619C52.5729 1.76536 51.3333 1.25494 49.875 1.25494C48.8906 1.25494 47.9974 1.50104 47.1953 1.99323C46.3932 2.48541 45.7734 3.13255 45.3359 3.93463C44.4609 3.97109 43.5312 4.10781 42.5469 4.34479C41.5625 4.58177 40.5417 4.90078 39.4844 5.30182C37.9167 4.06224 36.1576 3.07786 34.207 2.34869C32.2565 1.61953 30.1875 1.25494 28 1.25494C25.8125 1.25494 23.7435 1.61953 21.793 2.34869C19.8424 3.07786 18.0651 4.08046 16.4609 5.35651C13.9818 4.37213 11.7669 3.88906 9.81641 3.90729C7.86589 3.92552 6.32552 4.48151 5.19531 5.57526C3.88281 6.88776 3.32682 8.76536 3.52734 11.2081C3.72786 13.6508 4.63021 16.5128 6.23438 19.794C5.94271 20.1221 5.70573 20.4958 5.52344 20.9151C5.34115 21.3344 5.25 21.781 5.25 22.2549C5.25 23.2029 5.59635 24.0232 6.28906 24.7159C6.98177 25.4086 7.80208 25.7549 8.75 25.7549C9.07812 25.7549 9.38802 25.7094 9.67969 25.6182C9.97135 25.5271 10.2448 25.4086 10.5 25.2628C10.6823 25.7732 10.8737 26.2745 11.0742 26.7667C11.2747 27.2589 11.5026 27.7419 11.7578 28.2159C10.5182 29.8565 9.40625 31.4607 8.42188 33.0284C7.4375 34.6325 6.59896 36.1729 5.90625 37.6495C5.21354 39.126 4.66667 40.5388 4.26562 41.8878C3.86458 43.2732 3.6276 44.5492 3.55469 45.7159C2.7526 46.1534 2.10547 46.7732 1.61328 47.5753C1.12109 48.3773 0.875 49.2706 0.875 50.2549C0.875 51.7133 1.38542 52.9529 2.40625 53.9737C3.42708 54.9945 4.66667 55.5049 6.125 55.5049ZM20.5078 34.5049C19.1224 33.7758 17.8646 32.8917 16.7344 31.8526C15.6042 30.8135 14.638 29.656 13.8359 28.3799C14.8203 27.1039 15.8685 25.837 16.9805 24.5792C18.0924 23.3214 19.2682 22.0909 20.5078 20.8878C21.7109 19.6482 22.9505 18.4724 24.2266 17.3604C25.5026 16.2484 26.7604 15.2003 28 14.2159C29.2396 15.1638 30.4883 16.1937 31.7461 17.3057C33.0039 18.4177 34.2526 19.6117 35.4922 20.8878C36.7318 22.0909 37.9076 23.3214 39.0195 24.5792C40.1315 25.837 41.1797 27.1039 42.1641 28.3799C42.1276 28.4164 42.1094 28.4437 42.1094 28.462C42.1094 28.4802 42.0911 28.4893 42.0547 28.4893C42.0547 28.5258 42.0547 28.544 42.0547 28.544C41.2526 29.7836 40.3047 30.9138 39.2109 31.9346C38.1172 32.9555 36.8776 33.8122 35.4922 34.5049C35.3464 34.5779 35.2279 34.6781 35.1367 34.8057C35.0456 34.9333 35 35.0883 35 35.2706V38.0049H31.5V25.2628L33.8516 22.8565L32.6484 21.6534L30.0234 24.2784C29.9141 24.3513 29.8411 24.4424 29.8047 24.5518C29.7682 24.6612 29.75 24.7706 29.75 24.8799V38.0049H26.25V24.8799C26.25 24.7706 26.2318 24.6612 26.1953 24.5518C26.1589 24.4424 26.0859 24.3513 25.9766 24.2784L23.3516 21.6534L22.1484 22.8565L24.5 25.2628V38.0049H21V35.2706C21 35.0883 20.9544 34.9333 20.8633 34.8057C20.7721 34.6781 20.6536 34.5779 20.5078 34.5049ZM44.625 19.6299C44.625 20.8695 44.4883 22.0818 44.2148 23.2667C43.9414 24.4516 43.5495 25.5909 43.0391 26.6846C42.0911 25.4815 41.0885 24.2875 40.0312 23.1026C38.974 21.9177 37.8802 20.7602 36.75 19.6299C35.5469 18.4268 34.3346 17.2784 33.1133 16.1846C31.8919 15.0909 30.6797 14.07 29.4766 13.1221C31.1536 11.8825 32.8125 10.7706 34.4531 9.78619C36.0938 8.80182 37.6615 7.99974 39.1562 7.37994C40.8333 8.87474 42.1641 10.6794 43.1484 12.794C44.1328 14.9086 44.625 17.1872 44.625 19.6299ZM36.75 39.7549V41.5049H19.25V39.7549H36.75ZM35 43.2549V44.1299H21V43.2549H35ZM36.75 45.8799V47.6299H19.25V45.8799H36.75ZM28 53.7549C26.6875 53.7549 25.5482 53.3357 24.582 52.4971C23.6159 51.6586 23.0234 50.6195 22.8047 49.3799H33.1953C32.9766 50.6195 32.3841 51.6586 31.418 52.4971C30.4518 53.3357 29.3125 53.7549 28 53.7549ZM49 34.5049C49 34.9789 48.8268 35.3891 48.4805 35.7354C48.1341 36.0818 47.724 36.2549 47.25 36.2549C46.776 36.2549 46.3659 36.0818 46.0195 35.7354C45.6732 35.3891 45.5 34.9789 45.5 34.5049C45.5 34.031 45.6732 33.6208 46.0195 33.2745C46.3659 32.9281 46.776 32.7549 47.25 32.7549C47.724 32.7549 48.1341 32.9281 48.4805 33.2745C48.8268 33.6208 49 34.031 49 34.5049ZM47.25 38.0049C47.4323 38.0049 47.6055 37.9867 47.7695 37.9503C47.9336 37.9138 48.0885 37.8773 48.2344 37.8409C49.6198 40.6482 50.431 43.1182 50.668 45.251C50.9049 47.3839 50.5312 48.9424 49.5469 49.9268C48.599 50.8747 47.1133 51.2575 45.0898 51.0753C43.0664 50.893 40.7057 50.1638 38.0078 48.8878C38.1536 48.7055 38.2721 48.5141 38.3633 48.3135C38.4544 48.113 38.5 47.8852 38.5 47.6299V45.8799C38.5 45.406 38.3268 44.9958 37.9805 44.6495C37.6341 44.3031 37.224 44.1299 36.75 44.1299V43.2549C37.224 43.2549 37.6341 43.0818 37.9805 42.7354C38.3268 42.3891 38.5 41.9789 38.5 41.5049V39.7549C38.5 39.281 38.3268 38.8708 37.9805 38.5245C37.6341 38.1781 37.224 38.0049 36.75 38.0049V35.8174C38.099 35.0883 39.3203 34.2133 40.4141 33.1924C41.5078 32.1716 42.4557 31.0596 43.2578 29.8565C43.5495 30.2211 43.8229 30.5857 44.0781 30.9503C44.3333 31.3148 44.5703 31.6612 44.7891 31.9893C44.4609 32.3174 44.2057 32.7003 44.0234 33.1378C43.8411 33.5753 43.75 34.031 43.75 34.5049C43.75 35.4529 44.0964 36.2732 44.7891 36.9659C45.4818 37.6586 46.3021 38.0049 47.25 38.0049ZM49.875 3.00494C50.8229 3.00494 51.6432 3.3513 52.3359 4.04401C53.0286 4.73671 53.375 5.55703 53.375 6.50494C53.375 7.45286 53.0286 8.27317 52.3359 8.96588C51.6432 9.65859 50.8229 10.0049 49.875 10.0049C48.9271 10.0049 48.1068 9.65859 47.4141 8.96588C46.7214 8.27317 46.375 7.45286 46.375 6.50494C46.375 5.55703 46.7214 4.73671 47.4141 4.04401C48.1068 3.3513 48.9271 3.00494 49.875 3.00494ZM49.875 11.7549C50.0208 11.7549 50.1576 11.7458 50.2852 11.7276C50.4128 11.7094 50.5312 11.7003 50.6406 11.7003C50.4583 13.195 49.9753 14.8812 49.1914 16.7589C48.4076 18.6365 47.3776 20.6325 46.1016 22.7471C46.1745 22.2367 46.2383 21.7172 46.293 21.1885C46.3477 20.6599 46.375 20.1404 46.375 19.6299C46.375 17.1143 45.8919 14.7354 44.9258 12.4932C43.9596 10.251 42.6562 8.30963 41.0156 6.66901C41.6719 6.4138 42.3099 6.21328 42.9297 6.06744C43.5495 5.92161 44.1328 5.81224 44.6797 5.73932C44.6797 5.84869 44.6706 5.96718 44.6523 6.09479C44.6341 6.22239 44.625 6.35911 44.625 6.50494C44.625 7.96328 45.1354 9.20286 46.1562 10.2237C47.1771 11.2445 48.4167 11.7549 49.875 11.7549ZM28 3.00494C29.7865 3.00494 31.5 3.27838 33.1406 3.82526C34.7812 4.37213 36.276 5.13776 37.625 6.12213C36.1302 6.81484 34.5716 7.65338 32.9492 8.63776C31.3268 9.62213 29.6771 10.7523 28 12.0284C26.3229 10.7523 24.6732 9.62213 23.0508 8.63776C21.4284 7.65338 19.8516 6.81484 18.3203 6.12213C19.7057 5.13776 21.2188 4.37213 22.8594 3.82526C24.5 3.27838 26.2135 3.00494 28 3.00494ZM6.45312 6.83307C7.21875 6.06744 8.33984 5.67552 9.81641 5.65729C11.293 5.63906 13.0156 5.9763 14.9844 6.66901C13.4167 8.23671 12.1589 10.0687 11.2109 12.1651C10.263 14.2615 9.7526 16.4945 9.67969 18.8643C9.53385 18.8279 9.37891 18.8005 9.21484 18.7823C9.05078 18.7641 8.89583 18.7549 8.75 18.7549C8.56771 18.7549 8.39453 18.7732 8.23047 18.8096C8.06641 18.8461 7.91146 18.8825 7.76562 18.919C6.38021 16.1117 5.56901 13.6417 5.33203 11.5089C5.09505 9.37604 5.46875 7.81744 6.45312 6.83307ZM8.75 24.0049C8.27604 24.0049 7.86589 23.8318 7.51953 23.4854C7.17318 23.1391 7 22.7289 7 22.2549C7 21.781 7.17318 21.3708 7.51953 21.0245C7.86589 20.6781 8.27604 20.5049 8.75 20.5049C8.89583 20.5049 9.05078 20.5232 9.21484 20.5596C9.37891 20.5961 9.53385 20.669 9.67969 20.7784C9.67969 21.2159 9.71615 21.6625 9.78906 22.1182C9.86198 22.574 9.9349 23.0206 10.0078 23.4581C9.86198 23.6404 9.67969 23.7771 9.46094 23.8682C9.24219 23.9594 9.00521 24.0049 8.75 24.0049ZM11.375 19.6299C11.375 17.1872 11.8672 14.9086 12.8516 12.794C13.8359 10.6794 15.1667 8.87474 16.8438 7.37994C18.3021 7.99974 19.8516 8.78359 21.4922 9.73151C23.1328 10.6794 24.8281 11.8096 26.5781 13.1221C25.3385 14.07 24.1081 15.0909 22.8867 16.1846C21.6654 17.2784 20.4531 18.4268 19.25 19.6299C18.0833 20.7966 16.9714 21.9724 15.9141 23.1573C14.8568 24.3422 13.8724 25.518 12.9609 26.6846C12.4505 25.5909 12.0586 24.4516 11.7852 23.2667C11.5117 22.0818 11.375 20.8695 11.375 19.6299ZM12.7422 29.8565C13.5443 31.0596 14.4922 32.1716 15.5859 33.1924C16.6797 34.2133 17.901 35.0883 19.25 35.8174V38.0049C18.776 38.0049 18.3659 38.1781 18.0195 38.5245C17.6732 38.8708 17.5 39.281 17.5 39.7549V41.5049C17.5 41.9789 17.6732 42.3891 18.0195 42.7354C18.3659 43.0818 18.776 43.2549 19.25 43.2549V44.1299C18.776 44.1299 18.3659 44.3031 18.0195 44.6495C17.6732 44.9958 17.5 45.406 17.5 45.8799V47.6299C17.5 47.8852 17.5456 48.113 17.6367 48.3135C17.7279 48.5141 17.8464 48.7055 17.9922 48.8878C16.7526 49.4711 15.5677 49.945 14.4375 50.3096C13.3073 50.6742 12.2682 50.9112 11.3203 51.0206C11.3203 50.9112 11.3294 50.7927 11.3477 50.6651C11.3659 50.5375 11.375 50.4008 11.375 50.2549C11.375 48.7966 10.8646 47.557 9.84375 46.5362C8.82292 45.5154 7.58333 45.0049 6.125 45.0049C5.97917 45.0049 5.84245 45.0141 5.71484 45.0323C5.58724 45.0505 5.46875 45.0596 5.35938 45.0596C5.46875 44.0388 5.72396 42.945 6.125 41.7784C6.52604 40.5753 7.03646 39.3357 7.65625 38.0596C8.27604 36.7836 9.02344 35.4529 9.89844 34.0674C10.737 32.682 11.6849 31.2784 12.7422 29.8565ZM6.125 46.7549C7.07292 46.7549 7.89323 47.1013 8.58594 47.794C9.27865 48.4867 9.625 49.307 9.625 50.2549C9.625 51.2029 9.27865 52.0232 8.58594 52.7159C7.89323 53.4086 7.07292 53.7549 6.125 53.7549C5.17708 53.7549 4.35677 53.4086 3.66406 52.7159C2.97135 52.0232 2.625 51.2029 2.625 50.2549C2.625 49.307 2.97135 48.4867 3.66406 47.794C4.35677 47.1013 5.17708 46.7549 6.125 46.7549Z" fill="#29B79B"/>
</svg>
