<svg width="56" height="57" viewBox="0 0 56 57" fill="none" xmlns="http://www.w3.org/2000/svg">
<path d="M54.9062 29.5284C54.8333 29.419 54.7422 29.337 54.6328 29.2823C54.5234 29.2276 54.3958 29.2003 54.25 29.2003L47.8516 29.2549C47.5964 29.2549 47.3867 29.337 47.2227 29.501C47.0586 29.6651 46.9766 29.8747 46.9766 30.1299C46.9766 30.3487 47.0586 30.5492 47.2227 30.7315C47.3867 30.9138 47.5964 31.0049 47.8516 31.0049L51.9531 30.9503L40.5781 41.3409C40.2865 41.1586 39.9857 41.0219 39.6758 40.9307C39.3659 40.8396 39.0286 40.794 38.6641 40.794C38.1172 40.794 37.6068 40.9125 37.1328 41.1495C36.6589 41.3865 36.2578 41.7055 35.9297 42.1065L24.9375 37.4034C24.974 37.294 24.9922 37.2029 24.9922 37.1299C24.9922 37.057 24.9922 36.9659 24.9922 36.8565C24.9922 35.9086 24.6549 35.0974 23.9805 34.4229C23.306 33.7484 22.4766 33.4112 21.4922 33.4112C20.5443 33.4112 19.7331 33.7484 19.0586 34.4229C18.3841 35.0974 18.0469 35.9086 18.0469 36.8565C18.0469 37.1117 18.0651 37.3487 18.1016 37.5674C18.138 37.7862 18.2109 38.0049 18.3203 38.2237L6.50781 47.1924C6.21615 46.9372 5.88802 46.7458 5.52344 46.6182C5.15885 46.4906 4.77604 46.4268 4.375 46.4268C3.39062 46.4268 2.5612 46.7641 1.88672 47.4385C1.21224 48.113 0.875 48.9424 0.875 49.9268C0.875 50.8747 1.21224 51.6859 1.88672 52.3604C2.5612 53.0349 3.39062 53.3721 4.375 53.3721C5.32292 53.3721 6.13411 53.0349 6.80859 52.3604C7.48307 51.6859 7.82031 50.8747 7.82031 49.9268C7.82031 49.6716 7.80208 49.4346 7.76562 49.2159C7.72917 48.9971 7.65625 48.7784 7.54688 48.5596L19.3594 39.5909C19.651 39.8096 19.9792 39.9919 20.3438 40.1378C20.7083 40.2836 21.0911 40.3565 21.4922 40.3565C22.0755 40.3565 22.6042 40.2289 23.0781 39.9737C23.5521 39.7185 23.9531 39.3904 24.2812 38.9893L35.2188 43.7471C35.2188 43.82 35.2188 43.9021 35.2188 43.9932C35.2188 44.0844 35.2188 44.1664 35.2188 44.2393C35.2188 45.1872 35.556 46.0075 36.2305 46.7003C36.9049 47.393 37.7161 47.7393 38.6641 47.7393C39.6484 47.7393 40.4779 47.393 41.1523 46.7003C41.8268 46.0075 42.1641 45.1872 42.1641 44.2393C42.1641 43.9477 42.1276 43.6651 42.0547 43.3917C41.9818 43.1182 41.8906 42.8721 41.7812 42.6534L52.8828 32.5362L52.1719 36.2003C52.099 36.4555 52.1354 36.6833 52.2812 36.8839C52.4271 37.0844 52.6094 37.2029 52.8281 37.2393C52.8646 37.2393 52.901 37.2393 52.9375 37.2393C52.974 37.2393 52.9922 37.2393 52.9922 37.2393C53.2109 37.2393 53.4023 37.1755 53.5664 37.0479C53.7305 36.9203 53.8307 36.7471 53.8672 36.5284L55.125 30.2393C55.125 30.1299 55.1159 30.0115 55.0977 29.8839C55.0794 29.7562 55.0156 29.6378 54.9062 29.5284ZM4.375 51.6221C3.86458 51.6221 3.44531 51.4581 3.11719 51.1299C2.78906 50.8018 2.625 50.4008 2.625 49.9268C2.625 49.4164 2.78906 48.9971 3.11719 48.669C3.44531 48.3409 3.86458 48.1768 4.375 48.1768C4.84896 48.1768 5.25 48.3409 5.57812 48.669C5.90625 48.9971 6.07031 49.4164 6.07031 49.9268C6.07031 50.4008 5.90625 50.8018 5.57812 51.1299C5.25 51.4581 4.84896 51.6221 4.375 51.6221ZM21.4922 38.6065C21.0182 38.6065 20.6172 38.4333 20.2891 38.087C19.9609 37.7406 19.7969 37.3305 19.7969 36.8565C19.7969 36.3825 19.9609 35.9815 20.2891 35.6534C20.6172 35.3253 21.0182 35.1612 21.4922 35.1612C21.9661 35.1612 22.3763 35.3253 22.7227 35.6534C23.069 35.9815 23.2422 36.3825 23.2422 36.8565C23.2422 37.3305 23.069 37.7406 22.7227 38.087C22.3763 38.4333 21.9661 38.6065 21.4922 38.6065ZM38.6641 45.9893C38.1901 45.9893 37.7891 45.8161 37.4609 45.4698C37.1328 45.1234 36.9688 44.7133 36.9688 44.2393C36.9688 43.7654 37.1328 43.3643 37.4609 43.0362C37.7891 42.7081 38.1901 42.544 38.6641 42.544C39.138 42.544 39.5482 42.7081 39.8945 43.0362C40.2409 43.3643 40.4141 43.7654 40.4141 44.2393C40.4141 44.7133 40.2409 45.1234 39.8945 45.4698C39.5482 45.8161 39.138 45.9893 38.6641 45.9893ZM21.9844 31.0596C24.0625 31.0596 26.0039 30.5857 27.8086 29.6378C29.6133 28.6898 31.099 27.3591 32.2656 25.6456C32.3385 25.5727 32.3932 25.4815 32.4297 25.3721C32.4661 25.2628 32.4661 25.1352 32.4297 24.9893C32.3932 24.8799 32.3477 24.7797 32.293 24.6885C32.2383 24.5974 32.1562 24.5154 32.0469 24.4424L22.8594 18.1534V6.99713C22.8594 6.74192 22.7773 6.53229 22.6133 6.36823C22.4492 6.20416 22.2396 6.12213 21.9844 6.12213C20.2708 6.12213 18.6667 6.45026 17.1719 7.10651C15.6406 7.76276 14.3099 8.65599 13.1797 9.78619C12.0495 10.9164 11.1562 12.2289 10.5 13.7237C9.84375 15.2549 9.51562 16.8773 9.51562 18.5909C9.51562 20.3044 9.84375 21.9268 10.5 23.4581C11.1562 24.9529 12.0495 26.2654 13.1797 27.3956C14.3099 28.5258 15.6406 29.419 17.1719 30.0753C18.6667 30.7315 20.2708 31.0596 21.9844 31.0596ZM21.1094 7.87213V18.5909C21.1094 18.7367 21.1458 18.8734 21.2188 19.001C21.2917 19.1286 21.3828 19.2289 21.4922 19.3018L30.2969 25.3721C29.3125 26.6117 28.0911 27.5779 26.6328 28.2706C25.1745 28.9633 23.625 29.3096 21.9844 29.3096C20.526 29.3096 19.1406 29.0362 17.8281 28.4893C16.5156 27.906 15.3763 27.1312 14.4102 26.1651C13.444 25.199 12.6693 24.0596 12.0859 22.7471C11.5391 21.4711 11.2656 20.0857 11.2656 18.5909C11.2656 15.7836 12.2227 13.3591 14.1367 11.3174C16.0508 9.27578 18.375 8.12734 21.1094 7.87213ZM25.5938 16.5674L35.1641 23.1846C35.237 23.2211 35.319 23.2575 35.4102 23.294C35.5013 23.3305 35.5833 23.3487 35.6562 23.3487C35.8021 23.3487 35.9388 23.3122 36.0664 23.2393C36.194 23.1664 36.2943 23.0753 36.3672 22.9659C37.0964 21.9086 37.6432 20.7784 38.0078 19.5753C38.3724 18.3721 38.5547 17.1325 38.5547 15.8565C38.5547 14.143 38.2266 12.5206 37.5703 10.9893C36.9141 9.49453 36.0208 8.18203 34.8906 7.05182C33.7604 5.92161 32.4479 5.02838 30.9531 4.37213C29.4219 3.71588 27.7995 3.38776 26.0859 3.38776C25.9766 3.38776 25.8672 3.40599 25.7578 3.44244C25.6484 3.4789 25.5573 3.55182 25.4844 3.66119C25.375 3.73411 25.3021 3.82526 25.2656 3.93463C25.2292 4.04401 25.2109 4.15338 25.2109 4.26276V15.8565C25.2109 16.0023 25.2474 16.1391 25.3203 16.2667C25.3932 16.3943 25.4844 16.4945 25.5938 16.5674ZM36.8047 15.8565C36.8047 16.8044 36.6862 17.7341 36.4492 18.6456C36.2122 19.557 35.8568 20.4138 35.3828 21.2159L26.9609 15.419V5.19244C29.7318 5.41119 32.0651 6.5414 33.9609 8.58307C35.8568 10.6247 36.8047 13.0492 36.8047 15.8565Z" fill="#29B79B"/>
</svg>
