<svg width="56" height="57" viewBox="0 0 56 57" fill="none" xmlns="http://www.w3.org/2000/svg">
<g clip-path="url(#clip0_25_84)">
<path d="M34.125 26.6299C34.0156 26.6299 33.9062 26.6026 33.7969 26.5479C33.6875 26.4932 33.5964 26.4294 33.5234 26.3565L29.8594 22.5831C29.5312 22.9112 29.1576 23.1664 28.7383 23.3487C28.319 23.531 27.8542 23.6221 27.3438 23.6221C27.3438 23.6221 27.3346 23.6221 27.3164 23.6221C27.2982 23.6221 27.2891 23.6221 27.2891 23.6221C26.7786 23.6221 26.3138 23.5128 25.8945 23.294C25.4753 23.0753 25.1016 22.7836 24.7734 22.419C24.5182 22.1273 24.3177 21.781 24.1719 21.3799C24.026 20.9789 23.9531 20.5414 23.9531 20.0674C23.9531 19.5935 24.0443 19.1378 24.2266 18.7003C24.4089 18.2628 24.6458 17.8799 24.9375 17.5518L21.2734 13.7237C21.1641 13.6508 21.0911 13.5687 21.0547 13.4776C21.0182 13.3865 21 13.268 21 13.1221C21 13.0128 21.0182 12.9034 21.0547 12.794C21.0911 12.6846 21.1641 12.5935 21.2734 12.5206L32.2656 1.14557C32.5208 0.926819 32.8034 0.744526 33.1133 0.598694C33.4232 0.452862 33.7604 0.379944 34.125 0.379944C34.4896 0.379944 34.8268 0.452862 35.1367 0.598694C35.4466 0.744526 35.7292 0.926819 35.9844 1.14557L47.0312 12.5206C47.1042 12.5935 47.1589 12.6846 47.1953 12.794C47.2318 12.9034 47.25 13.0128 47.25 13.1221C47.25 13.2315 47.2318 13.3409 47.1953 13.4503C47.1589 13.5596 47.1042 13.6508 47.0312 13.7237L42.7109 18.1534C42.638 18.2263 42.5469 18.2901 42.4375 18.3448C42.3281 18.3995 42.2188 18.4268 42.1094 18.4268C41.9635 18.4268 41.8359 18.3995 41.7266 18.3448C41.6172 18.2901 41.526 18.2263 41.4531 18.1534L40.8516 17.4971C40.7057 17.3513 40.5234 17.2328 40.3047 17.1417C40.0859 17.0505 39.8672 17.0049 39.6484 17.0049C39.6484 17.0049 39.6393 17.0049 39.6211 17.0049C39.6029 17.0049 39.5938 17.0049 39.5938 17.0049C39.3385 17.0049 39.1107 17.0596 38.9102 17.169C38.7096 17.2784 38.5365 17.4242 38.3906 17.6065C38.3177 17.643 38.263 17.6885 38.2266 17.7432C38.1901 17.7979 38.1719 17.8617 38.1719 17.9346H38.1172L36.5312 17.2237C36.6042 17.0779 36.6862 16.9411 36.7773 16.8135C36.8685 16.6859 36.9688 16.5492 37.0781 16.4034C37.3698 16.0753 37.7435 15.8018 38.1992 15.5831C38.6549 15.3643 39.138 15.2549 39.6484 15.2549C40.1224 15.2549 40.569 15.3461 40.9883 15.5284C41.4076 15.7107 41.7812 15.9659 42.1094 16.294L45.1719 13.1221L34.7266 2.40338C34.6536 2.33046 34.5625 2.26666 34.4531 2.21198C34.3438 2.15729 34.2344 2.12994 34.125 2.12994C34.0156 2.12994 33.9062 2.15729 33.7969 2.21198C33.6875 2.26666 33.5964 2.33046 33.5234 2.40338L23.0781 13.1221L26.7969 16.9503C26.8698 17.0232 26.9245 17.1143 26.9609 17.2237C26.9974 17.3331 27.0156 17.4424 27.0156 17.5518C27.0156 17.6612 26.9974 17.7706 26.9609 17.8799C26.9245 17.9893 26.8698 18.0805 26.7969 18.1534L26.3047 18.7003C26.1224 18.8825 25.9766 19.0922 25.8672 19.3292C25.7578 19.5661 25.7031 19.8122 25.7031 20.0674C25.7031 20.3227 25.7396 20.5505 25.8125 20.751C25.8854 20.9516 25.9948 21.1247 26.1406 21.2706C26.2865 21.4529 26.4596 21.5987 26.6602 21.7081C26.8607 21.8174 27.0885 21.8721 27.3438 21.8721C27.3438 21.8721 27.3529 21.8721 27.3711 21.8721C27.3893 21.8721 27.3984 21.8721 27.3984 21.8721C27.6172 21.8721 27.8359 21.8266 28.0547 21.7354C28.2734 21.6443 28.4557 21.5258 28.6016 21.3799L29.2031 20.7237C29.276 20.6508 29.3672 20.587 29.4766 20.5323C29.5859 20.4776 29.7135 20.4503 29.8594 20.4503C29.9688 20.4503 30.0781 20.4776 30.1875 20.5323C30.2969 20.587 30.388 20.6508 30.4609 20.7237L34.125 24.4971L36.5312 22.0362L37.7891 23.2393L34.7266 26.3565C34.6536 26.4294 34.5625 26.4932 34.4531 26.5479C34.3438 26.6026 34.2344 26.6299 34.125 26.6299ZM10.5 42.3799C10.4635 42.3799 10.4271 42.3799 10.3906 42.3799C10.3542 42.3799 10.3359 42.3799 10.3359 42.3799C9.38802 42.307 8.59505 41.9333 7.95703 41.2589C7.31901 40.5844 7 39.7914 7 38.8799H1.75C1.49479 38.8799 1.28516 38.7979 1.12109 38.6339C0.957031 38.4698 0.875 38.2602 0.875 38.0049V22.2549C0.875 21.5258 1.13021 20.906 1.64062 20.3956C2.15104 19.8852 2.77083 19.6299 3.5 19.6299H19.25C19.5052 19.6299 19.7148 19.712 19.8789 19.876C20.043 20.0401 20.125 20.2497 20.125 20.5049V26.6299C20.125 26.8852 20.043 27.0948 19.8789 27.2589C19.7148 27.4229 19.5052 27.5049 19.25 27.5049H18.375C17.901 27.5049 17.4909 27.6781 17.1445 28.0245C16.7982 28.3708 16.625 28.781 16.625 29.2549C16.625 29.2549 16.625 29.2641 16.625 29.2823C16.625 29.3005 16.625 29.3279 16.625 29.3643C16.6615 29.8383 16.862 30.2302 17.2266 30.5401C17.5911 30.85 18.0104 31.0049 18.4844 31.0049C18.4844 31.0049 18.4935 31.0049 18.5117 31.0049C18.5299 31.0049 18.5391 31.0049 18.5391 31.0049H19.25C19.5052 31.0049 19.7148 31.087 19.8789 31.251C20.043 31.4151 20.125 31.6247 20.125 31.8799V38.0049C20.125 38.2602 20.043 38.4698 19.8789 38.6339C19.7148 38.7979 19.5052 38.8799 19.25 38.8799H14C14 39.3904 13.8997 39.8643 13.6992 40.3018C13.4987 40.7393 13.2344 41.1039 12.9062 41.3956C12.6146 41.7237 12.2591 41.9698 11.8398 42.1339C11.4206 42.2979 10.974 42.3799 10.5 42.3799ZM2.625 37.1299H7.875C8.13021 37.1299 8.33984 37.212 8.50391 37.376C8.66797 37.5401 8.75 37.7497 8.75 38.0049V38.7159C8.75 38.7523 8.75 38.7706 8.75 38.7706C8.75 39.2445 8.90495 39.6638 9.21484 40.0284C9.52474 40.393 9.91667 40.5935 10.3906 40.6299C10.4271 40.6299 10.4544 40.6299 10.4727 40.6299C10.4909 40.6299 10.5 40.6299 10.5 40.6299C10.974 40.6299 11.3841 40.4568 11.7305 40.1104C12.0768 39.7641 12.25 39.3539 12.25 38.8799V38.0049C12.25 37.7497 12.332 37.5401 12.4961 37.376C12.6602 37.212 12.8698 37.1299 13.125 37.1299H18.375V32.7549C17.4635 32.7549 16.6706 32.4359 15.9961 31.7979C15.3216 31.1599 14.9479 30.3852 14.875 29.4737V29.419C14.875 29.419 14.875 29.4008 14.875 29.3643C14.875 29.3279 14.875 29.2914 14.875 29.2549C14.875 28.781 14.957 28.3344 15.1211 27.9151C15.2852 27.4958 15.5312 27.1404 15.8594 26.8487C16.151 26.5206 16.5156 26.2562 16.9531 26.0557C17.3906 25.8552 17.8646 25.7549 18.375 25.7549V21.3799H3.5C3.24479 21.3799 3.03516 21.462 2.87109 21.626C2.70703 21.7901 2.625 21.9997 2.625 22.2549V37.1299ZM19.25 56.3799H3.5C2.77083 56.3799 2.15104 56.1247 1.64062 55.6143C1.13021 55.1039 0.875 54.4841 0.875 53.7549V38.0049C0.875 37.7497 0.957031 37.5401 1.12109 37.376C1.28516 37.212 1.49479 37.1299 1.75 37.1299H7.875C8.13021 37.1299 8.33984 37.212 8.50391 37.376C8.66797 37.5401 8.75 37.7497 8.75 38.0049V38.8799C8.75 39.3539 8.92318 39.7641 9.26953 40.1104C9.61589 40.4568 10.026 40.6299 10.5 40.6299C10.5 40.6299 10.5091 40.6299 10.5273 40.6299C10.5456 40.6299 10.5729 40.6299 10.6094 40.6299C11.0833 40.5935 11.4753 40.393 11.7852 40.0284C12.0951 39.6638 12.25 39.2445 12.25 38.7706C12.25 38.7706 12.25 38.7615 12.25 38.7432C12.25 38.725 12.25 38.7159 12.25 38.7159V38.0049C12.25 37.7497 12.332 37.5401 12.4961 37.376C12.6602 37.212 12.8698 37.1299 13.125 37.1299H19.25C19.5052 37.1299 19.7148 37.212 19.8789 37.376C20.043 37.5401 20.125 37.7497 20.125 38.0049V43.2549C20.6354 43.2549 21.1094 43.3552 21.5469 43.5557C21.9844 43.7562 22.349 44.0206 22.6406 44.3487C22.9688 44.6404 23.2148 44.9958 23.3789 45.4151C23.543 45.8344 23.625 46.281 23.625 46.7549C23.625 46.7914 23.625 46.8279 23.625 46.8643C23.625 46.9008 23.625 46.9372 23.625 46.9737V46.919C23.5521 47.8669 23.1784 48.6599 22.5039 49.2979C21.8294 49.9359 21.0365 50.2549 20.125 50.2549V55.5049C20.125 55.7602 20.043 55.9698 19.8789 56.1339C19.7148 56.2979 19.5052 56.3799 19.25 56.3799ZM2.625 38.8799V53.7549C2.625 54.0102 2.70703 54.2198 2.87109 54.3839C3.03516 54.5479 3.24479 54.6299 3.5 54.6299H18.375V49.3799C18.375 49.1247 18.457 48.9151 18.6211 48.751C18.7852 48.587 18.9948 48.5049 19.25 48.5049H19.9609C19.9974 48.5049 20.0156 48.5049 20.0156 48.5049C20.4896 48.5049 20.9089 48.35 21.2734 48.0401C21.638 47.7302 21.8385 47.3383 21.875 46.8643C21.875 46.8279 21.875 46.8005 21.875 46.7823C21.875 46.7641 21.875 46.7549 21.875 46.7549C21.875 46.281 21.7018 45.8708 21.3555 45.5245C21.0091 45.1781 20.599 45.0049 20.125 45.0049H19.25C18.9948 45.0049 18.7852 44.9229 18.6211 44.7589C18.457 44.5948 18.375 44.3852 18.375 44.1299V38.8799H14C14 39.7914 13.681 40.5844 13.043 41.2589C12.4049 41.9333 11.6302 42.307 10.7188 42.3799H10.6641C10.6641 42.3799 10.6458 42.3799 10.6094 42.3799C10.5729 42.3799 10.5365 42.3799 10.5 42.3799C10.026 42.3799 9.57943 42.2979 9.16016 42.1339C8.74089 41.9698 8.38542 41.7237 8.09375 41.3956C7.76562 41.1039 7.5013 40.7393 7.30078 40.3018C7.10026 39.8643 7 39.3904 7 38.8799H2.625ZM35 56.3799H19.25C18.9948 56.3799 18.7852 56.2979 18.6211 56.1339C18.457 55.9698 18.375 55.7602 18.375 55.5049V49.3799C18.375 49.1247 18.457 48.9151 18.6211 48.751C18.7852 48.587 18.9948 48.5049 19.25 48.5049H20.125C20.599 48.5049 21.0091 48.3318 21.3555 47.9854C21.7018 47.6391 21.875 47.2289 21.875 46.7549C21.875 46.7549 21.875 46.7458 21.875 46.7276C21.875 46.7094 21.875 46.682 21.875 46.6456C21.8385 46.1716 21.638 45.7797 21.2734 45.4698C20.9089 45.1599 20.4896 45.0049 20.0156 45.0049C20.0156 45.0049 20.0065 45.0049 19.9883 45.0049C19.9701 45.0049 19.9609 45.0049 19.9609 45.0049H19.25C18.9948 45.0049 18.7852 44.9229 18.6211 44.7589C18.457 44.5948 18.375 44.3852 18.375 44.1299V38.0049C18.375 37.7497 18.457 37.5401 18.6211 37.376C18.7852 37.212 18.9948 37.1299 19.25 37.1299H24.5C24.5 36.6195 24.6003 36.1456 24.8008 35.7081C25.0013 35.2706 25.2656 34.906 25.5938 34.6143C25.8854 34.2862 26.2409 34.0401 26.6602 33.876C27.0794 33.712 27.526 33.6299 28 33.6299C28.0365 33.6299 28.0729 33.6299 28.1094 33.6299C28.1458 33.6299 28.1823 33.6299 28.2188 33.6299H28.1641C29.112 33.7029 29.9049 34.0766 30.543 34.751C31.181 35.4255 31.5 36.2185 31.5 37.1299H36.75C37.0052 37.1299 37.2148 37.212 37.3789 37.376C37.543 37.5401 37.625 37.7497 37.625 38.0049V53.7549C37.625 54.4841 37.3698 55.1039 36.8594 55.6143C36.349 56.1247 35.7292 56.3799 35 56.3799ZM20.125 54.6299H35C35.2552 54.6299 35.4648 54.5479 35.6289 54.3839C35.793 54.2198 35.875 54.0102 35.875 53.7549V38.8799H30.625C30.3698 38.8799 30.1602 38.7979 29.9961 38.6339C29.832 38.4698 29.75 38.2602 29.75 38.0049V37.294C29.75 37.2575 29.75 37.2393 29.75 37.2393C29.75 36.7654 29.5951 36.3461 29.2852 35.9815C28.9753 35.6169 28.5833 35.4164 28.1094 35.3799C28.0729 35.3799 28.0456 35.3799 28.0273 35.3799C28.0091 35.3799 28 35.3799 28 35.3799C27.526 35.3799 27.1159 35.5531 26.7695 35.8995C26.4232 36.2458 26.25 36.656 26.25 37.1299V38.0049C26.25 38.2602 26.168 38.4698 26.0039 38.6339C25.8398 38.7979 25.6302 38.8799 25.375 38.8799H20.125V43.2549C21.0365 43.2549 21.8294 43.574 22.5039 44.212C23.1784 44.85 23.5521 45.6247 23.625 46.5362V46.5909C23.625 46.5909 23.625 46.6091 23.625 46.6456C23.625 46.682 23.625 46.7185 23.625 46.7549C23.625 47.2289 23.543 47.6755 23.3789 48.0948C23.2148 48.5141 22.9688 48.8695 22.6406 49.1612C22.349 49.4893 21.9844 49.7536 21.5469 49.9542C21.1094 50.1547 20.6354 50.2549 20.125 50.2549V54.6299ZM44.625 34.5049C41.599 34.5049 39.5391 33.1742 38.4453 30.5128C37.3516 27.8513 36.7865 25.518 36.75 23.5128L33.5234 20.2315C33.4505 20.1586 33.3867 20.0674 33.332 19.9581C33.2773 19.8487 33.25 19.7393 33.25 19.6299C33.25 19.5206 33.2773 19.4112 33.332 19.3018C33.3867 19.1924 33.4505 19.1013 33.5234 19.0284L36.1484 16.4034C36.2214 16.3305 36.3125 16.2667 36.4219 16.212C36.5312 16.1573 36.6406 16.1299 36.75 16.1299C36.8594 16.1299 36.9688 16.1573 37.0781 16.212C37.1875 16.2667 37.2786 16.3305 37.3516 16.4034L45.2266 24.2784L44.0234 25.4815L36.75 18.2628L35.3828 19.6299L38.2266 22.5284C38.2995 22.6013 38.3633 22.6924 38.418 22.8018C38.4727 22.9112 38.5 23.0206 38.5 23.1299C38.5 23.1664 38.5365 23.6768 38.6094 24.6612C38.6823 25.682 38.9102 26.7849 39.293 27.9698C39.6758 29.1547 40.2865 30.2575 41.125 31.2784C41.9635 32.2628 43.1302 32.7549 44.625 32.7549V34.5049ZM53.375 37.1299H51.625V33.6299L53.3203 14.7628L46.8672 9.07526L40.7422 8.30963L40.9609 6.61432L47.3594 7.37994C47.4323 7.37994 47.5143 7.39817 47.6055 7.43463C47.6966 7.47109 47.7786 7.52578 47.8516 7.59869L54.8516 13.7237C54.9245 13.7966 54.9883 13.8878 55.043 13.9971C55.0977 14.1065 55.125 14.2341 55.125 14.3799C55.125 14.3799 55.125 14.3891 55.125 14.4073C55.125 14.4255 55.125 14.4529 55.125 14.4893V14.4346L53.375 33.6846V37.1299ZM41.125 32.7549H42.875V37.1299H41.125V32.7549ZM54.25 43.2549H40.25C39.9948 43.2549 39.7852 43.1729 39.6211 43.0089C39.457 42.8448 39.375 42.6352 39.375 42.3799V37.1299C39.375 36.8747 39.457 36.6651 39.6211 36.501C39.7852 36.337 39.9948 36.2549 40.25 36.2549H54.25C54.5052 36.2549 54.7148 36.337 54.8789 36.501C55.043 36.6651 55.125 36.8747 55.125 37.1299V42.3799C55.125 42.6352 55.043 42.8448 54.8789 43.0089C54.7148 43.1729 54.5052 43.2549 54.25 43.2549ZM41.125 41.5049H53.375V38.0049H41.125V41.5049ZM40.25 42.3799H42V55.5049H40.25V42.3799ZM52.5 42.3799H54.25V55.5049H52.5V42.3799ZM41.125 17.0049H42.875V22.2549H41.125V17.0049ZM10.5 10.0049H17.5V11.7549H10.5V10.0049ZM12.5234 17.2784L16.8984 12.9034L18.1016 14.1065L13.7266 18.4815L12.5234 17.2784ZM12.5234 4.48151L13.7266 3.27838L18.1016 7.65338L16.8984 8.85651L12.5234 4.48151ZM4.375 51.1299H6.125V52.8799H4.375V51.1299ZM7.875 51.1299H16.625V52.8799H7.875V51.1299Z" fill="white"/>
</g>
<defs>
<clipPath id="clip0_25_84">
<rect width="56" height="56" fill="white" transform="matrix(1 0 0 -1 0 56.3799)"/>
</clipPath>
</defs>
</svg>
