<svg id="Layer_1" data-name="Layer 1" xmlns="http://www.w3.org/2000/svg" viewBox="0 0 1080 1080"><defs><style>.cls-1{fill:#fff;}</style></defs><path class="cls-1" d="M462.37,569.77l6.87-5.19c2.25,2.06,4.18,4,6.26,5.68,5.32,4.39,11.32,5.88,17.95,3.56,3.62-1.27,6.32-4.15,5.91-7.84a12.48,12.48,0,0,0-4.38-7.77c-3.44-2.64-7.77-4.1-11.73-6.06-2-1-4.15-1.93-6.12-3.08-8.81-5.1-12.43-11.91-10.58-19.76,2-8.45,8.92-14.12,18.65-14.78,10-.68,18.18,2.91,24.24,11.88l-6.08,4.79c-5-2.51-9.23-5.06-13.79-6.71a9.15,9.15,0,0,0-7,.75c-2.22,1.35-4.75,3.94-5,6.25s1.49,5.64,3.43,7.21c3,2.44,6.91,3.77,10.44,5.55,2.86,1.44,5.83,2.67,8.58,4.28,8.72,5.1,11.83,11.51,10.16,20.5-1.38,7.41-7.95,13.33-16.63,15C481,586.39,469.31,581.14,462.37,569.77Z"/><path class="cls-1" d="M739.69,567.4l6.79,5.09c-4.27,9-15.41,13.72-26.51,11.44-11.58-2.38-20.41-12.44-21.05-24A26.26,26.26,0,0,1,717.34,533c11.54-3.6,23.06.42,29.36,10.49l-6.92,5.58c-10-8.68-18.65-9.55-25.38-2.67a17.14,17.14,0,0,0-.09,23.26C721.25,576.92,729.34,576.24,739.69,567.4Z"/><path class="cls-1" d="M851.85,539.56l-5,5.53c-4.65-1.45-8.68-3.32-12.87-3.76-2.07-.22-5.44,1.67-6.4,3.55-1.57,3.06,1.42,4.85,4,6,4,1.87,8.16,3.4,12.06,5.44,7.09,3.7,9.46,8.07,8.6,15-.77,6.28-5.08,10.63-12.29,12.39a25.29,25.29,0,0,1-26.32-9.24l5.85-6.3c4.5,3.89,8.93,7.39,15.14,6.87,3.2-.27,6.3-.89,7.16-4.47.94-3.92-2.19-5.3-5-6.6-4.14-1.93-8.46-3.49-12.46-5.64-6-3.24-8.55-8.06-7.69-13.79,1-6.48,5-10.31,11.12-11.87C836.87,530.44,844.91,532.2,851.85,539.56Z"/><path class="cls-1" d="M614.74,533.23a12.13,12.13,0,0,1,1.48-.32c9.59-.37,9.59-.37,13.51,8.42,3.6,8,7.19,16.11,11.16,25,3.73-8.41,7.14-16.13,10.56-23.85.12-.28.28-.54.4-.82,4.13-9.35,4.13-9.35,15.12-8.55-4,8.39-7.81,16.61-11.69,24.82-3.76,8-7.51,16-11.34,23.93-1.53,3.17-4.29,3.59-5.64.79C630.44,566.38,622.72,550,614.74,533.23Z"/><path class="cls-1" d="M605.79,533.21V542c-.43.28-.68.58-.92.57-10.7-.38-17.87,4.53-17,18.26.42,7,0,14,0,21.06a7,7,0,0,1-.32,1.26H577.29c-.07-1.18-.19-2.22-.19-3.26,0-15.38,0-30.76,0-46.38H587c.09,1.82.16,3.48.27,5.66C592.61,534.46,598.27,531.57,605.79,533.21Z"/><path class="cls-1" d="M687.87,583a22.18,22.18,0,0,1-2.22.25c-2.42,0-4.84,0-7.59,0V533.13h9.81Z"/><path class="cls-1" d="M682.88,507a7.06,7.06,0,0,1,7.37,7,6.85,6.85,0,0,1-6.88,7c-4.29.15-7.44-2.65-7.55-6.7A6.92,6.92,0,0,1,682.88,507Z"/><path class="cls-1" d="M228.1,542.66c-.81-6.29-.38-6.82,5.3-6.82,18,0,36.06-.38,54.07.15,9.1.27,19-5.88,19-17.23,0-10.49-7.63-17.32-19-17.43-18-.18-36-.05-54.07-.06h-5.23c.74-4.11,2.77-5.71,6-5.72,19.25,0,38.5-.32,57.74.1,15.47.34,25.46,18.86,18.41,33.33-1,2-2.25,3.91-3.48,6,4.23,1,8.42,1.52,12.27,3,10.41,4,15.59,14,13.84,26-1.45,9.86-10.9,18.91-21.17,19-25.81.32-51.63.18-77.44.11-4.05,0-6.24-2.41-6.89-7h5.35c25.51,0,51,0,76.52,0,7.05,0,12.34-3.3,15.41-9.63s2.09-12.22-2.17-17.58c-3.55-4.47-8.36-6.24-14.09-6.22-25.2.08-50.41,0-75.61,0Z"/><path class="cls-1" d="M400.72,574.11h26.5v8.73H383.86c8.51-14.22,18.39-26.65,27.43-40.7h-23.7v-8.89h40.52c-3.51,7.87-8.91,13.81-13.27,20.35S405.76,566.8,400.72,574.11Z"/><path class="cls-1" d="M352.64,583h-9.9V506.74h9.9Z"/><path class="cls-1" d="M373.8,583h-9.89V533.31h9.89Z"/><path class="cls-1" d="M376.07,514.2c-.09,3.83-3.16,6.63-7.23,6.6s-7.15-2.85-7.16-6.67a7.11,7.11,0,0,1,7.48-7A7,7,0,0,1,376.07,514.2Z"/><ellipse class="cls-1" cx="269.88" cy="550.2" rx="58.2" ry="0.66"/><ellipse class="cls-1" cx="269.88" cy="559.39" rx="58.19" ry="0.66"/><ellipse class="cls-1" cx="269.87" cy="568.62" rx="58.12" ry="0.61"/><path class="cls-1" d="M290.53,512.7H228.78v-.84h61.8Z"/><ellipse class="cls-1" cx="259.76" cy="525.46" rx="43.9" ry="0.65"/><path class="cls-1" d="M546.4,531.83a26,26,0,0,0-26.24,18.72,26.36,26.36,0,0,0,12.08,30.36c10.94,6.16,25.44,4.21,34-4.77l-4.84-6.84c-14.29,9.68-28.76,6.2-31-7.93h37.16C571.56,546.15,561.53,532.43,546.4,531.83Zm7.35,21.48c-7.61,0-15.22,0-22.88,0,1-7.73,6.77-12.51,14.55-12.32,7.11.17,11.65,4.46,12.18,12C556.13,553.15,554.94,553.3,553.75,553.31Z"/><path class="cls-1" d="M776.25,532.34c-10.91,2.19-19.44,11.46-20.53,21.89-1.29,12.37,4.08,22.52,14.57,27.56,10.67,5.12,24.11,2.85,32.26-5.6-1.59-2.28-3.21-4.59-4.82-6.87-9.38,6.17-17.37,7.31-23.89,3.41a13.78,13.78,0,0,1-7.18-11.23H804C808.36,543.16,794.05,528.78,776.25,532.34ZM767,553c1.72-8.08,7.44-12.45,15.39-12,6.7.37,10.9,4.58,11.62,12Z"/></svg>