<svg id="Layer_1" data-name="Layer 1" xmlns="http://www.w3.org/2000/svg" viewBox="0 0 1080 1080"><defs><style>.cls-1{fill:#003;}</style></defs><path class="cls-1" d="M265.93,557.57c-4.24-32.92-2-35.69,27.73-35.7,94.29,0,188.64-2,282.85.8,47.64,1.41,99.57-30.74,99.63-90.16.06-54.85-39.92-90.58-99.17-91.17-94.28-.94-188.58-.28-282.87-.3H266.72c3.88-21.49,14.52-29.89,31.6-29.92,100.69-.15,201.41-1.69,302.05.52C681.31,313.42,733.6,410.3,696.69,486c-5.17,10.59-11.78,20.47-18.21,31.53,22.13,5.23,44.08,8,64.17,15.62,54.5,20.68,81.59,73.17,72.42,135.82-7.56,51.56-57,98.89-110.73,99.55-135,1.65-270.08.93-405.13.58-21.18-.05-32.64-12.65-36-36.6h28q200.17,0,400.34-.18c36.88-.09,64.53-17.28,80.57-50.38,15.75-32.5,11-64-11.31-92C742.13,566.56,717,557.28,687,557.38c-131.85.46-263.7.2-395.55.19Z"/><ellipse class="cls-1" cx="484.49" cy="597.02" rx="304.45" ry="3.45"/><ellipse class="cls-1" cx="484.5" cy="645.06" rx="304.43" ry="3.46"/><ellipse class="cls-1" cx="484.47" cy="693.36" rx="304.04" ry="3.19"/><path class="cls-1" d="M592.52,400.8h-323v-4.38H592.78C592.69,397.88,592.61,399.34,592.52,400.8Z"/><ellipse class="cls-1" cx="431.56" cy="467.59" rx="229.66" ry="3.38"/></svg>